<svg xmlns="http://www.w3.org/2000/svg" width="47.601" height="47.601"><g data-name="Icon feather-search" fill="none" stroke-linecap="round" stroke-linejoin="round"><g data-name="Контур 10"><path d="M37.9 18.95A18.95 18.95 0 1118.95 0 18.95 18.95 0 0137.9 18.95z"/><path d="M18.95 8C12.912 8 8 12.912 8 18.95c0 6.038 4.912 10.95 10.95 10.95 6.038 0 10.95-4.912 10.95-10.95C29.9 12.912 24.988 8 18.95 8m0-8C29.416 0 37.9 8.484 37.9 18.95S29.416 37.9 18.95 37.9 0 29.416 0 18.95 8.484 0 18.95 0z" fill="#fff"/></g><path data-name="Контур 11" d="M41.945 41.945l-8.8-8.8" stroke="#fff" stroke-width="8"/></g></svg>